<svg width="140" height="30" viewBox="0 0 140 30" fill="none" xmlns="http://www.w3.org/2000/svg">
<g clip-path="url(#clip0_25_2)">
<path d="M22.13 7.29004C21.7908 7.30404 21.4548 7.36117 21.13 7.46004C20.8046 7.53081 20.4913 7.64872 20.2 7.81004C19.8659 7.99241 19.581 8.25322 19.37 8.57004C19.1268 8.91317 18.9159 9.27806 18.74 9.66004C18.06 11.15 17.04 13.46 15.66 16.66C14.28 19.86 12.92 23 11.48 26.45H10.2C8.73333 22.8167 7.31 19.3334 5.93 16C4.55 12.6667 3.62333 10.3934 3.15 9.18004C3.03213 8.90013 2.86631 8.64293 2.66 8.42004C2.425 8.17126 2.15151 7.96192 1.85 7.80004C1.56333 7.63414 1.25313 7.51275 0.93 7.44004C0.624607 7.36477 0.31357 7.31461 0 7.29004L0 6.29004H9V7.29004C8.34945 7.31769 7.7014 7.38784 7.06 7.50004C6.54 7.60004 6.27 7.78004 6.27 8.05004C6.27264 8.17315 6.29631 8.29491 6.34 8.41004C6.34 8.55004 6.41 8.67004 6.44 8.75004C6.82 9.66004 7.44 11.16 8.28 13.23C9.12 15.3 10.33 18.23 11.9 22.08C12.67 20.35 13.57 18.3 14.58 15.94C15.59 13.58 16.27 11.94 16.58 11.09C16.8234 10.5211 17.0174 9.93223 17.16 9.33004C17.2108 9.06296 17.2375 8.79188 17.24 8.52004C17.2439 8.42057 17.2242 8.32158 17.1825 8.23119C17.1408 8.1408 17.0782 8.06159 17 8.00004C16.7402 7.83273 16.4572 7.70469 16.16 7.62004C15.8307 7.53196 15.4969 7.46186 15.16 7.41004L14.16 7.30004V6.30004H22.24L22.13 7.29004Z" fill="black"/>
<path d="M50.66 20.3301L50.25 26.1901H32.25V25.1901C32.55 25.1901 32.97 25.1301 33.47 25.0601C33.8093 25.0403 34.1451 24.9799 34.47 24.8801C34.7503 24.7753 34.989 24.5823 35.15 24.3301C35.2882 24.0653 35.3538 23.7685 35.34 23.4701V9.18009C35.3469 8.89838 35.2923 8.61856 35.18 8.36009C35.0223 8.08634 34.7697 7.87997 34.47 7.78009C34.116 7.63392 33.7472 7.52662 33.37 7.46009C32.9999 7.38371 32.6261 7.32696 32.25 7.29009V6.29009H49V11.0901H47.87C47.5917 10.2533 47.1422 9.48359 46.55 8.83009C46.0892 8.16691 45.3973 7.69973 44.61 7.52009C44.3 7.52009 43.92 7.45009 43.48 7.43009C43.04 7.41009 42.54 7.43009 41.98 7.43009H38.57V15.3401H41C41.5803 15.3642 42.1607 15.2967 42.72 15.1401C43.1055 15.0017 43.4496 14.7677 43.72 14.4601C43.9696 14.1312 44.1623 13.7628 44.29 13.3701C44.4394 12.9559 44.5433 12.5267 44.6 12.0901H45.75V19.8801H44.58C44.5304 19.3947 44.4195 18.9176 44.25 18.4601C44.1343 18.0695 43.9479 17.7034 43.7 17.3801C43.419 17.0388 43.0432 16.7882 42.62 16.6601C42.0961 16.5353 41.5584 16.4781 41.02 16.4901H38.57V22.4901C38.5567 22.9669 38.6004 23.4436 38.7 23.9101C38.7789 24.2272 38.9709 24.5046 39.24 24.6901C39.5676 24.8897 39.9376 25.0096 40.32 25.0401C40.79 25.0901 41.43 25.1101 42.32 25.1101H43.66C44.1082 25.0956 44.5554 25.0589 45 25.0001C45.4041 24.9611 45.8051 24.8943 46.2 24.8001C46.5251 24.7423 46.8309 24.6049 47.09 24.4001C47.67 23.8045 48.1647 23.1314 48.56 22.4001C48.9506 21.7636 49.2851 21.0944 49.56 20.4001L50.66 20.3301ZM44.24 2.71009L42.15 3.64009L39 5.06009L38.52 4.51009L40.8 2.51009C41.33 2.00009 41.91 1.44009 42.48 0.88009C42.7484 0.614351 43.0511 0.385661 43.38 0.20009C43.6482 0.0701879 43.942 0.00185626 44.24 9.03145e-05C44.5996 -0.00721603 44.9514 0.105366 45.24 0.32009C45.366 0.412184 45.4688 0.532505 45.54 0.671423C45.6112 0.81034 45.6488 0.963996 45.65 1.12009C45.6586 1.29735 45.6282 1.47434 45.5608 1.63852C45.4934 1.80269 45.3907 1.95003 45.26 2.07009C44.9542 2.33367 44.6103 2.54945 44.24 2.71009Z" fill="black"/>
<path d="M79.73 20.28L79.27 26.19H62.27V25.19L63.34 25.09C63.6802 25.071 64.0165 25.0071 64.34 24.9C64.6162 24.8078 64.8503 24.6198 65 24.37C65.1513 24.095 65.2239 23.7836 65.21 23.47V9.24004C65.2071 8.94742 65.1351 8.65962 65 8.40004C64.8474 8.1238 64.5981 7.91369 64.3 7.81004C63.9765 7.67228 63.642 7.56189 63.3 7.48004C62.9563 7.38601 62.6049 7.32243 62.25 7.29004V6.29004H71.42V7.29004C71.0473 7.31242 70.6765 7.35919 70.31 7.43004C69.9728 7.4888 69.639 7.56558 69.31 7.66004C69.1578 7.69886 69.0157 7.76981 68.8933 7.86813C68.7708 7.96645 68.6708 8.08985 68.6 8.23004C68.4721 8.50207 68.4072 8.79945 68.41 9.10004V22.46C68.4002 22.9425 68.437 23.4247 68.52 23.9C68.5637 24.2163 68.7287 24.5032 68.98 24.7C69.2839 24.883 69.6263 24.9926 69.98 25.02C70.6448 25.0816 71.3124 25.1083 71.98 25.1H73.16C73.56 25.1 73.96 25.04 74.32 24.99C74.6582 24.9364 74.9923 24.8595 75.32 24.76C75.5771 24.6978 75.8122 24.5664 76 24.38C76.5492 23.7613 77.0381 23.0916 77.46 22.38C77.906 21.7092 78.2909 20.9997 78.61 20.26L79.73 20.28Z" fill="black"/>
<path d="M108.89 20.33L108.48 26.19H90.48V25.19C90.79 25.19 91.2 25.13 91.71 25.06C92.0492 25.0391 92.3848 24.9787 92.71 24.88C92.9918 24.7779 93.2312 24.5843 93.39 24.33C93.5282 24.0652 93.5938 23.7685 93.58 23.47V9.18004C93.5868 8.89833 93.5322 8.61851 93.42 8.36004C93.2623 8.08629 93.0097 7.87992 92.71 7.78004C92.3525 7.63406 91.9803 7.52678 91.6 7.46004C91.2335 7.38235 90.8629 7.32559 90.49 7.29004V6.29004H107.31V11.09H106.1C105.83 10.2495 105.379 9.47823 104.78 8.83004C104.321 8.1696 103.633 7.70284 102.85 7.52004C102.53 7.48004 102.15 7.45004 101.71 7.43004C101.27 7.41004 100.77 7.41004 100.21 7.43004H96.8V15.34H99.24C99.8236 15.366 100.408 15.2985 100.97 15.14C101.355 15.0017 101.7 14.7677 101.97 14.46C102.223 14.1335 102.416 13.7644 102.54 13.37C102.689 12.9559 102.793 12.5267 102.85 12.09H104V19.88H102.84C102.79 19.3947 102.679 18.9175 102.51 18.46C102.39 18.0711 102.204 17.7057 101.96 17.38C101.681 17.0369 101.304 16.786 100.88 16.66C100.353 16.5341 99.8117 16.477 99.27 16.49H96.8V22.49C96.7867 22.9669 96.8304 23.4436 96.93 23.91C97.0088 24.2272 97.2009 24.5046 97.47 24.69C97.8021 24.8878 98.1748 25.0075 98.56 25.04C99.225 25.0976 99.8925 25.1209 100.56 25.11H101.89C102.357 25.1138 102.825 25.0938 103.29 25.05C103.694 25.0094 104.095 24.9426 104.49 24.85C104.812 24.7907 105.114 24.6533 105.37 24.45C105.95 23.8545 106.445 23.1814 106.84 22.45C107.231 21.8135 107.565 21.1444 107.84 20.45L108.89 20.33Z" fill="black"/>
<path d="M137.62 20L136.89 26.21H119.44V25.7L133.11 7.40004H128.11C127.517 7.40004 127.027 7.40004 126.64 7.40004C126.278 7.41635 125.917 7.45643 125.56 7.52004C124.663 7.77617 123.869 8.3079 123.29 9.04004C122.49 9.86981 121.843 10.8347 121.38 11.89H120.31L121 6.29004H137.28V6.78004L123.6 25.08H128.76C129.686 25.0799 130.611 25.0231 131.53 24.91C132.211 24.9022 132.875 24.7049 133.45 24.34C134.154 23.7112 134.776 22.9954 135.3 22.21C135.784 21.5152 136.199 20.7751 136.54 20H137.62Z" fill="black"/>
</g>
<defs>
<clipPath id="clip0_25_2">
<rect width="140" height="30" fill="black"/>
</clipPath>
</defs>
</svg>
