<svg width="800" height="800" viewBox="0 0 800 800" fill="none" xmlns="http://www.w3.org/2000/svg">
<path d="M184 303V280.3C184 259.219 184 248.678 184.922 239.8C193.88 153.58 265.833 85.3665 356.778 76.8744C366.145 76 377.265 76 399.5 76C421.735 76 432.855 76 442.222 76.8744C533.167 85.366 605.121 153.58 614.076 239.8C615 248.678 615 259.219 615 280.3V303" stroke="white" stroke-width="33.3333" stroke-linecap="round"/>
<path d="M88 429.3C88 369.76 88 339.993 113.266 321.496C138.531 303 179.195 303 260.523 303H538.477C619.807 303 660.47 303 685.735 321.496C711 339.993 711 369.76 711 429.3V513.5C711 612.73 711 662.345 668.89 693.172C626.78 724 559.007 724 423.462 724H375.538C239.991 724 172.218 724 130.109 693.172C88 662.345 88 612.73 88 513.5V429.3Z" stroke="white" stroke-width="33.3333"/>
</svg>
